<svg xmlns="http://www.w3.org/2000/svg" width="36" height="36" viewBox="0 0 36 36" fill="none"><metadata><rdf:RDF xmlns:rdf="http://www.w3.org/1999/02/22-rdf-syntax-ns#" xmlns:dc="http://purl.org/dc/elements/1.1/"><rdf:Description><dc:creator>RealFaviconGenerator</dc:creator><dc:source>https://realfavicongenerator.net</dc:source></rdf:Description></rdf:RDF></metadata><g clip-path="url(#clip0_1279_4881)">
<path opacity="0.9" d="M18 36C14.4399 36 10.9598 34.9442 7.99974 32.9664C5.03965 30.9886 2.73255 28.1774 1.37018 24.8882C0.00779901 21.5992 -0.348662 17.98 0.345874 14.4884C1.04041 10.9967 2.75475 7.78942 5.27209 5.27209C7.78942 2.75475 10.9967 1.04041 14.4884 0.345874C17.98 -0.348662 21.5992 0.00779858 24.8882 1.37018C28.1774 2.73255 30.9886 5.03965 32.9664 7.99974C34.9442 10.9598 36 14.4399 36 18H28.8C28.8 15.864 28.1666 13.7759 26.9798 11.9998C25.793 10.2238 24.1063 8.83954 22.133 8.0221C20.1596 7.20469 17.988 6.9908 15.893 7.40754C13.798 7.82425 11.8737 8.85284 10.3633 10.3633C8.85284 11.8737 7.82425 13.798 7.40754 15.893C6.9908 17.988 7.20469 20.1596 8.0221 22.133C8.83954 24.1063 10.2238 25.793 11.9998 26.9798C13.7759 28.1666 15.864 28.8 18 28.8V36Z" fill="#F4F3EC"></path>
<path opacity="0.9" d="M32.4 27.3602C30.4118 27.3602 28.8 25.7484 28.8 23.7602C28.8 21.7719 30.4118 20.1602 32.4 20.1602C34.3882 20.1602 36 21.7719 36 23.7602C36 25.7484 34.3882 27.3602 32.4 27.3602Z" fill="#F4F3EC"></path>
<path opacity="0.9" d="M32.4 35.9998C30.4118 35.9998 28.8 34.388 28.8 32.3998C28.8 30.4116 30.4118 28.7998 32.4 28.7998C34.3882 28.7998 36 30.4116 36 32.3998C36 34.388 34.3882 35.9998 32.4 35.9998Z" fill="#F4F3EC"></path>
<path opacity="0.9" d="M23.4 35.9998C21.4118 35.9998 19.8 34.388 19.8 32.3998C19.8 30.4116 21.4118 28.7998 23.4 28.7998C25.3882 28.7998 27 30.4116 27 32.3998C27 34.388 25.3882 35.9998 23.4 35.9998Z" fill="#F4F3EC"></path>
</g><defs>
<clipPath id="clip0_1279_4881">
<rect width="36" height="36" fill="white"></rect>
</clipPath>
</defs><style>@media (prefers-color-scheme: light) { :root { filter: contrast(1) brightness(0.2); } }
@media (prefers-color-scheme: dark) { :root { filter: none; } }
</style></svg>